<svg data-v-423bf9ae="" xmlns="http://www.w3.org/2000/svg" viewBox="0 0 672 90" class="iconLeftSlogan"><!----><!----><!----><g data-v-423bf9ae="" id="e5274e96-e1b8-44d7-ad6c-fee3255d55b4" fill="black" transform="matrix(4.219409465789795,0,0,4.219409465789795,107.89028930664062,-14.135019302368164)"><path d="M3.07 4.82L4.19 4.63L4.19 4.20L0.57 4.20L0.57 4.63L1.69 4.82L1.69 12.89C1.69 13.89 1.64 14.48 1.09 15.22L0.50 16.03L0.97 16.37C1.75 15.53 2.45 14.83 2.83 13.82C3.02 13.29 3.07 12.80 3.07 12.17ZM7.90 9.98L9.37 9.98L11.42 13.09C12.03 13.97 12.24 14.13 13.06 14.13C13.57 14.13 13.97 14 13.97 14L13.97 13.59C13.44 13.51 13.31 13.45 12.96 12.98L10.61 9.76C12.04 9.37 12.87 8.36 12.87 7.03C12.87 5.26 11.61 4.20 9.18 4.20L5.40 4.20L5.40 4.63L6.52 4.82L6.52 13.38L5.40 13.57L5.40 14L9.31 14L9.31 13.57L7.90 13.38ZM7.90 9.28L7.90 4.90L8.99 4.90C10.75 4.90 11.47 5.89 11.47 7.04C11.47 8.39 10.68 9.28 9.32 9.28ZM20.57 13.47C20.03 13.47 19.43 13.41 18.91 13.24L18.61 11.16L18.07 11.16L18.09 13.64C18.09 13.64 18.98 14.20 20.58 14.20C22.71 14.20 24.05 13.15 24.05 11.48C24.05 9.72 22.68 9.09 21.43 8.43C20.40 7.88 19.46 7.34 19.46 6.27C19.46 5.28 20.10 4.73 21.21 4.73C21.74 4.73 22.41 4.86 22.89 5.07L23.10 6.94L23.65 6.94L23.76 4.58C23.76 4.58 22.82 4.00 21.31 4.00C19.39 4.00 18.14 5.03 18.14 6.52C18.14 8.19 19.40 8.82 20.61 9.44C21.70 10.00 22.74 10.53 22.74 11.82C22.74 12.89 21.76 13.47 20.57 13.47ZM31.39 10.40C31.58 8.13 30.66 6.86 28.71 6.86C26.95 6.86 25.48 8.30 25.48 10.63C25.48 12.67 26.74 14.14 28.76 14.14C30.21 14.14 31.11 13.41 31.11 13.41L31.11 12.94C31.11 12.94 30.27 13.27 29.32 13.27C27.79 13.27 26.85 12.07 26.81 10.40ZM28.66 7.57C29.86 7.57 30.10 8.55 30.11 9.66L26.84 9.74C26.96 8.41 27.64 7.57 28.66 7.57ZM35.87 7.59C36.61 7.59 37.11 8.19 37.93 8.30L38.21 7.17C37.55 7.10 37.14 6.86 36.27 6.86C34.19 6.86 32.77 8.47 32.77 10.63C32.77 12.67 33.89 14.14 35.91 14.14C37.31 14.14 38.12 13.41 38.12 13.41L38.12 12.94C38.12 12.94 37.38 13.27 36.37 13.27C34.90 13.27 34.10 12.00 34.10 10.26C34.10 9.04 34.68 7.59 35.87 7.59ZM45.92 7.83L45.98 7L45.70 6.93L43.48 7.14L43.48 7.57L44.62 7.69L44.62 11.21C44.62 11.90 44.67 12.63 44.67 12.63C44.17 12.88 43.61 13.10 42.90 13.10C41.80 13.10 41.45 12.29 41.45 11.48L41.45 7.41L41.51 7L41.23 6.93L39.02 7.14L39.02 7.57L40.15 7.69L40.15 11.63C40.15 13.12 40.99 14.14 42.32 14.14C43.29 14.14 44.04 13.68 44.66 13.17C44.77 13.86 45.23 14.14 45.81 14.14C46.44 14.14 46.87 13.82 46.87 13.82L46.87 13.44L46.44 13.44C46.02 13.44 45.92 13.19 45.92 12.84ZM50.30 8.44C50.71 8.16 51.23 7.92 51.70 7.92C52.32 7.92 52.57 8.33 53.17 8.58L53.72 7.56C53.14 7.32 52.88 6.86 52.16 6.86C51.46 6.86 50.79 7.45 50.30 7.94L50.36 7L50.08 6.93L47.92 7.13L47.92 7.56L49.06 7.67L49.06 13.40L47.94 13.57L47.94 14L51.76 14L51.76 13.57L50.36 13.40L50.36 9.84C50.36 9.09 50.30 8.44 50.30 8.44ZM56.15 5.22C56.69 5.22 57.04 4.91 57.04 4.40C57.04 3.93 56.73 3.64 56.22 3.64C55.71 3.64 55.33 3.93 55.33 4.42C55.33 4.90 55.68 5.22 56.15 5.22ZM56.56 6.93L54.40 7.13L54.40 7.56L55.54 7.67L55.54 13.40L54.42 13.57L54.42 14L57.96 14L57.96 13.57L56.84 13.40L56.84 7ZM58.73 7.63L59.70 7.64C59.67 7.81 59.64 8.37 59.64 8.78L59.64 11.94C59.64 13.51 60.38 14.14 61.49 14.14C62.58 14.14 63.32 13.52 63.32 13.52L63.32 13.01C63.32 13.01 62.73 13.27 62.01 13.27C61.25 13.27 60.93 12.81 60.93 11.93L60.93 7.66L63.31 7.77L63.31 7L60.93 7L60.94 5.38L60.65 5.38L59.63 7L58.73 7.32ZM65.93 17.50L67.24 17.57C67.24 17.57 67.49 15.99 68.24 14.01L70.64 7.62L71.61 7.43L71.61 7L68.64 7L68.64 7.43L69.69 7.62L68.43 11.34C68.15 12.18 67.96 12.92 67.96 12.92L67.90 12.92C67.90 12.92 67.70 12.15 67.40 11.30L66.04 7.62L66.95 7.43L66.95 7L63.69 7L63.69 7.43L64.60 7.62L67.30 14.25C66.37 15.83 65.93 17.50 65.93 17.50ZM75.42 4.20L75.29 6.78L75.81 6.78L76.33 5.01L78.69 4.89L78.69 13.38L77.57 13.57L77.57 14L81.19 14L81.19 13.57L80.07 13.38L80.07 4.89L82.53 5.01L82.63 6.78L83.15 6.78L83.44 4.20ZM89.39 10.40C89.59 8.13 88.66 6.86 86.72 6.86C84.95 6.86 83.48 8.30 83.48 10.63C83.48 12.67 84.74 14.14 86.76 14.14C88.21 14.14 89.11 13.41 89.11 13.41L89.11 12.94C89.11 12.94 88.27 13.27 87.32 13.27C85.79 13.27 84.85 12.07 84.81 10.40ZM86.66 7.57C87.86 7.57 88.10 8.55 88.12 9.66L84.84 9.74C84.97 8.41 85.64 7.57 86.66 7.57ZM93.87 7.59C94.61 7.59 95.12 8.19 95.93 8.30L96.21 7.17C95.55 7.10 95.14 6.86 94.28 6.86C92.19 6.86 90.78 8.47 90.78 10.63C90.78 12.67 91.90 14.14 93.91 14.14C95.31 14.14 96.12 13.41 96.12 13.41L96.12 12.94C96.12 12.94 95.38 13.27 94.37 13.27C92.90 13.27 92.11 12.00 92.11 10.26C92.11 9.04 92.68 7.59 93.87 7.59ZM99.55 3.42L99.27 3.35L97.12 3.56L97.12 3.99L98.25 4.10L98.25 13.40L97.13 13.57L97.13 14L100.53 14L100.53 13.57L99.55 13.40L99.55 9.70C99.55 8.95 99.50 8.37 99.50 8.37C99.50 8.37 100.27 7.90 101.28 7.90C102.28 7.90 102.72 8.53 102.72 9.69L102.72 13.40L101.74 13.57L101.74 14L105.14 14L105.14 13.57L104.02 13.40L104.02 9.37C104.02 7.88 103.24 6.86 101.77 6.86C100.88 6.86 100.13 7.34 99.50 7.83ZM111.89 4.82L113.01 4.63L113.01 4.20L109.40 4.20L109.40 4.63L110.52 4.82L110.52 13.38L109.40 13.57L109.40 14L116.42 14L116.51 11.16L115.99 11.16L115.58 13.24L111.89 13.30ZM120.02 4.82L121.14 4.63L121.14 4.20L117.53 4.20L117.53 4.63L118.65 4.82L118.65 13.38L117.53 13.57L117.53 14L124.56 14L124.64 11.16L124.12 11.16L123.72 13.24L120.02 13.30ZM131.12 13.47C128.58 13.47 127.16 11.51 127.16 8.97C127.16 6.43 128.41 4.73 130.73 4.73C131.68 4.73 132.34 4.96 132.62 5.07L132.83 6.94L133.38 6.94L133.49 4.56C133.49 4.56 132.45 4.00 130.63 4.00C127.46 4.00 125.73 6.43 125.73 9.27C125.73 12.39 127.74 14.20 130.97 14.20C132.36 14.20 133.45 13.65 133.45 13.65L133.45 11.16L132.92 11.16L132.62 13.26C132.30 13.34 131.73 13.47 131.12 13.47Z"></path></g><!----><g data-v-423bf9ae="" id="03f1f331-70d4-4980-9b5e-921531722bd0" transform="matrix(2.8125,0,0,2.8125,0,0)" stroke="none" fill="black"><path d="M15.965 16.258l.707-.707 10.39 10.39-.707.707z"></path><path d="M4.935 26.357L26.018 5.274l.707.707L5.642 27.065z"></path><path d="M31 1v4.194h-4.194V1H31m1-1h-6.194v6.194H32V0zM31 26.806V31h-4.194v-4.194H31m1-1h-6.194V32H32v-6.194zM5.194 26.806V31H1v-4.194h4.194m1-1H0V32h6.194v-6.194z"></path></g><!----><g data-v-423bf9ae="" id="b9f09d91-36fd-45d5-bbcb-7720a470ba82" fill="black" transform="matrix(2.4968655109405518,0,0,2.4968655109405518,107.87767028808594,50.01253890991211)"><path d="M3.35 13.47C2.81 13.47 2.21 13.41 1.69 13.24L1.39 11.16L0.85 11.16L0.87 13.64C0.87 13.64 1.76 14.20 3.36 14.20C5.49 14.20 6.83 13.15 6.83 11.48C6.83 9.72 5.46 9.09 4.21 8.43C3.18 7.88 2.24 7.34 2.24 6.27C2.24 5.28 2.88 4.73 3.99 4.73C4.52 4.73 5.19 4.86 5.67 5.07L5.88 6.94L6.43 6.94L6.54 4.58C6.54 4.58 5.60 4.00 4.09 4.00C2.17 4.00 0.92 5.03 0.92 6.52C0.92 8.19 2.18 8.82 3.39 9.44C4.48 10.00 5.52 10.53 5.52 11.82C5.52 12.89 4.54 13.47 3.35 13.47ZM10.71 9.34L13.99 9.41L13.99 8.55L10.71 8.64L10.71 4.90L14.27 4.98L14.45 6.58L15.02 6.58L15.11 4.20L8.22 4.20L8.22 4.63L9.34 4.82L9.34 13.38L8.22 13.57L8.22 14L15.25 14L15.30 11.58L14.78 11.58L14.41 13.24L10.71 13.30ZM22.01 13.47C19.46 13.47 18.05 11.51 18.05 8.97C18.05 6.43 19.29 4.73 21.62 4.73C22.57 4.73 23.23 4.96 23.51 5.07L23.72 6.94L24.26 6.94L24.37 4.56C24.37 4.56 23.34 4.00 21.52 4.00C18.34 4.00 16.62 6.43 16.62 9.27C16.62 12.39 18.62 14.20 21.85 14.20C23.24 14.20 24.33 13.65 24.33 13.65L24.33 11.16L23.80 11.16L23.51 13.26C23.18 13.34 22.61 13.47 22.01 13.47ZM34.06 4.83L35.18 4.63L35.18 4.20L31.92 4.20L31.92 4.63L33.04 4.83L33.04 10.35C33.04 12.21 32.21 13.45 30.48 13.45C28.95 13.45 28.08 12.26 28.08 10.49L28.08 4.83L29.20 4.63L29.20 4.20L25.59 4.20L25.59 4.63L26.71 4.82L26.71 10.32C26.71 12.73 28.04 14.20 30.42 14.20C33.26 14.20 34.06 11.97 34.06 10.02ZM38.72 9.98L40.19 9.98L42.25 13.09C42.85 13.97 43.06 14.13 43.89 14.13C44.39 14.13 44.80 14 44.80 14L44.80 13.59C44.27 13.51 44.14 13.45 43.79 12.98L41.44 9.76C42.87 9.37 43.69 8.36 43.69 7.03C43.69 5.26 42.43 4.20 40.01 4.20L36.23 4.20L36.23 4.63L37.35 4.82L37.35 13.38L36.23 13.57L36.23 14L40.14 14L40.14 13.57L38.72 13.38ZM38.72 9.28L38.72 4.90L39.82 4.90C41.58 4.90 42.29 5.89 42.29 7.04C42.29 8.39 41.51 9.28 40.15 9.28ZM47.91 4.82L49.03 4.63L49.03 4.20L45.42 4.20L45.42 4.63L46.54 4.82L46.54 13.38L45.42 13.57L45.42 14L49.03 14L49.03 13.57L47.91 13.38ZM50.15 4.20L50.02 6.78L50.54 6.78L51.06 5.01L53.42 4.89L53.42 13.38L52.30 13.57L52.30 14L55.92 14L55.92 13.57L54.80 13.38L54.80 4.89L57.26 5.01L57.36 6.78L57.88 6.78L58.17 4.20ZM63.77 9.81L66.64 4.84L67.47 4.63L67.47 4.20L64.60 4.20L64.60 4.63L65.55 4.87C65.55 5.15 65.41 5.45 65.23 5.78L63.92 8.01C63.53 8.72 63.29 9.25 63.29 9.25L63.24 9.25C63.24 9.25 62.94 8.60 62.64 8.09L60.63 4.82L61.71 4.63L61.71 4.20L58.37 4.20L58.37 4.63L59.18 4.82L62.40 9.81L62.40 13.38L61.28 13.57L61.28 14L64.89 14L64.89 13.57L63.77 13.38ZM75.91 9.81L78.78 4.84L79.60 4.63L79.60 4.20L76.73 4.20L76.73 4.63L77.69 4.87C77.69 5.15 77.55 5.45 77.36 5.78L76.06 8.01C75.67 8.72 75.43 9.25 75.43 9.25L75.38 9.25C75.38 9.25 75.08 8.60 74.77 8.09L72.77 4.82L73.85 4.63L73.85 4.20L70.50 4.20L70.50 4.63L71.32 4.82L74.54 9.81L74.54 13.38L73.42 13.57L73.42 14L77.03 14L77.03 13.57L75.91 13.38ZM84.76 13.54C82.56 13.54 81.34 11.13 81.34 8.90C81.34 6.52 82.35 4.66 84.32 4.66C86.55 4.66 87.77 7.07 87.77 9.39C87.77 11.68 86.76 13.54 84.76 13.54ZM84.39 14.20C87.74 14.20 89.19 11.56 89.19 9.06C89.19 6.12 87.39 4.00 84.71 4.00C81.37 4.00 79.91 6.64 79.91 9.14C79.91 12.08 81.72 14.20 84.39 14.20ZM98.73 4.83L99.85 4.63L99.85 4.20L96.59 4.20L96.59 4.63L97.71 4.83L97.71 10.35C97.71 12.21 96.88 13.45 95.14 13.45C93.62 13.45 92.75 12.26 92.75 10.49L92.75 4.83L93.87 4.63L93.87 4.20L90.26 4.20L90.26 4.63L91.38 4.82L91.38 10.32C91.38 12.73 92.71 14.20 95.09 14.20C97.93 14.20 98.73 11.97 98.73 10.02ZM109.65 13.47C107.10 13.47 105.69 11.51 105.69 8.97C105.69 6.43 106.93 4.73 109.26 4.73C110.21 4.73 110.87 4.96 111.15 5.07L111.36 6.94L111.90 6.94L112.01 4.56C112.01 4.56 110.98 4.00 109.16 4.00C105.98 4.00 104.26 6.43 104.26 9.27C104.26 12.39 106.26 14.20 109.49 14.20C110.88 14.20 111.97 13.65 111.97 13.65L111.97 11.16L111.44 11.16L111.15 13.26C110.82 13.34 110.25 13.47 109.65 13.47ZM115.39 11.16L119.34 11.16L120.13 13.38L119.04 13.57L119.04 14L122.44 14L122.44 13.57L121.56 13.38L118.10 4.10L117.07 4.19L113.69 13.38L112.64 13.57L112.64 14L115.92 14L115.92 13.57L114.74 13.38C114.80 13.08 114.95 12.43 115.16 11.83ZM117.33 5.28C117.33 5.28 117.46 6.03 117.71 6.73L119.07 10.46L115.63 10.46L116.90 6.69C117.12 6.03 117.28 5.28 117.28 5.28ZM130.62 10.72C130.62 11.30 130.68 11.94 130.68 11.94L130.62 11.96C130.62 11.96 130.28 11.34 129.93 10.86L125.05 4.14L123.51 4.20L123.51 4.72L124.15 5.46L124.15 13.34L123.03 13.57L123.03 14L126.08 14L126.08 13.57L124.96 13.34L124.96 7.39C124.96 6.75 124.89 6.13 124.89 6.13L124.94 6.12C124.94 6.12 125.26 6.68 125.66 7.22L130.68 14.06L131.43 14L131.43 4.89L132.55 4.63L132.55 4.20L129.50 4.20L129.50 4.63L130.62 4.89ZM136.88 4.20L136.75 6.78L137.27 6.78L137.79 5.01L140.15 4.89L140.15 13.38L139.03 13.57L139.03 14L142.65 14L142.65 13.57L141.53 13.38L141.53 4.89L143.99 5.01L144.09 6.78L144.61 6.78L144.90 4.20ZM148.27 9.98L149.74 9.98L151.80 13.09C152.40 13.97 152.61 14.13 153.44 14.13C153.94 14.13 154.35 14 154.35 14L154.35 13.59C153.82 13.51 153.69 13.45 153.34 12.98L150.99 9.76C152.42 9.37 153.24 8.36 153.24 7.03C153.24 5.26 151.98 4.20 149.56 4.20L145.78 4.20L145.78 4.63L146.90 4.82L146.90 13.38L145.78 13.57L145.78 14L149.69 14L149.69 13.57L148.27 13.38ZM148.27 9.28L148.27 4.90L149.37 4.90C151.13 4.90 151.84 5.89 151.84 7.04C151.84 8.39 151.06 9.28 149.70 9.28ZM163.09 4.83L164.21 4.63L164.21 4.20L160.94 4.20L160.94 4.63L162.06 4.83L162.06 10.35C162.06 12.21 161.24 13.45 159.50 13.45C157.98 13.45 157.11 12.26 157.11 10.49L157.11 4.83L158.23 4.63L158.23 4.20L154.62 4.20L154.62 4.63L155.74 4.82L155.74 10.32C155.74 12.73 157.07 14.20 159.45 14.20C162.29 14.20 163.09 11.97 163.09 10.02ZM167.94 13.47C167.41 13.47 166.81 13.41 166.29 13.24L165.98 11.16L165.45 11.16L165.47 13.64C165.47 13.64 166.36 14.20 167.96 14.20C170.09 14.20 171.43 13.15 171.43 11.48C171.43 9.72 170.06 9.09 168.81 8.43C167.78 7.88 166.84 7.34 166.84 6.27C166.84 5.28 167.48 4.73 168.59 4.73C169.12 4.73 169.79 4.86 170.27 5.07L170.48 6.94L171.02 6.94L171.14 4.58C171.14 4.58 170.20 4.00 168.69 4.00C166.77 4.00 165.52 5.03 165.52 6.52C165.52 8.19 166.78 8.82 167.99 9.44C169.08 10.00 170.11 10.53 170.11 11.82C170.11 12.89 169.13 13.47 167.94 13.47ZM172.62 4.20L172.49 6.78L173.01 6.78L173.53 5.01L175.90 4.89L175.90 13.38L174.78 13.57L174.78 14L178.39 14L178.39 13.57L177.27 13.38L177.27 4.89L179.73 5.01L179.83 6.78L180.35 6.78L180.64 4.20Z"></path></g></svg>