<svg data-v-423bf9ae="" xmlns="http://www.w3.org/2000/svg" viewBox="0 0 561.1392907801419 60" class="font"><!----><!----><!----><g data-v-423bf9ae="" id="a37f40c0-c7e2-4283-9cbc-8c3212d1e334" fill="white" transform="matrix(4.219409465789795,0,0,4.219409465789795,-2.1097075939178467,-14.135019302368164)"><path d="M3.07 4.82L4.19 4.63L4.19 4.20L0.57 4.20L0.57 4.63L1.69 4.82L1.69 12.89C1.69 13.89 1.64 14.48 1.09 15.22L0.50 16.03L0.97 16.37C1.75 15.53 2.45 14.83 2.83 13.82C3.02 13.29 3.07 12.80 3.07 12.17ZM7.90 9.98L9.37 9.98L11.42 13.09C12.03 13.97 12.24 14.13 13.06 14.13C13.57 14.13 13.97 14 13.97 14L13.97 13.59C13.44 13.51 13.31 13.45 12.96 12.98L10.61 9.76C12.04 9.37 12.87 8.36 12.87 7.03C12.87 5.26 11.61 4.20 9.18 4.20L5.40 4.20L5.40 4.63L6.52 4.82L6.52 13.38L5.40 13.57L5.40 14L9.31 14L9.31 13.57L7.90 13.38ZM7.90 9.28L7.90 4.90L8.99 4.90C10.75 4.90 11.47 5.89 11.47 7.04C11.47 8.39 10.68 9.28 9.32 9.28ZM20.57 13.47C20.03 13.47 19.43 13.41 18.91 13.24L18.61 11.16L18.07 11.16L18.09 13.64C18.09 13.64 18.98 14.20 20.58 14.20C22.71 14.20 24.05 13.15 24.05 11.48C24.05 9.72 22.68 9.09 21.43 8.43C20.40 7.88 19.46 7.34 19.46 6.27C19.46 5.28 20.10 4.73 21.21 4.73C21.74 4.73 22.41 4.86 22.89 5.07L23.10 6.94L23.65 6.94L23.76 4.58C23.76 4.58 22.82 4.00 21.31 4.00C19.39 4.00 18.14 5.03 18.14 6.52C18.14 8.19 19.40 8.82 20.61 9.44C21.70 10.00 22.74 10.53 22.74 11.82C22.74 12.89 21.76 13.47 20.57 13.47ZM31.39 10.40C31.58 8.13 30.66 6.86 28.71 6.86C26.95 6.86 25.48 8.30 25.48 10.63C25.48 12.67 26.74 14.14 28.76 14.14C30.21 14.14 31.11 13.41 31.11 13.41L31.11 12.94C31.11 12.94 30.27 13.27 29.32 13.27C27.79 13.27 26.85 12.07 26.81 10.40ZM28.66 7.57C29.86 7.57 30.10 8.55 30.11 9.66L26.84 9.74C26.96 8.41 27.64 7.57 28.66 7.57ZM35.87 7.59C36.61 7.59 37.11 8.19 37.93 8.30L38.21 7.17C37.55 7.10 37.14 6.86 36.27 6.86C34.19 6.86 32.77 8.47 32.77 10.63C32.77 12.67 33.89 14.14 35.91 14.14C37.31 14.14 38.12 13.41 38.12 13.41L38.12 12.94C38.12 12.94 37.38 13.27 36.37 13.27C34.90 13.27 34.10 12.00 34.10 10.26C34.10 9.04 34.68 7.59 35.87 7.59ZM45.92 7.83L45.98 7L45.70 6.93L43.48 7.14L43.48 7.57L44.62 7.69L44.62 11.21C44.62 11.90 44.67 12.63 44.67 12.63C44.17 12.88 43.61 13.10 42.90 13.10C41.80 13.10 41.45 12.29 41.45 11.48L41.45 7.41L41.51 7L41.23 6.93L39.02 7.14L39.02 7.57L40.15 7.69L40.15 11.63C40.15 13.12 40.99 14.14 42.32 14.14C43.29 14.14 44.04 13.68 44.66 13.17C44.77 13.86 45.23 14.14 45.81 14.14C46.44 14.14 46.87 13.82 46.87 13.82L46.87 13.44L46.44 13.44C46.02 13.44 45.92 13.19 45.92 12.84ZM50.30 8.44C50.71 8.16 51.23 7.92 51.70 7.92C52.32 7.92 52.57 8.33 53.17 8.58L53.72 7.56C53.14 7.32 52.88 6.86 52.16 6.86C51.46 6.86 50.79 7.45 50.30 7.94L50.36 7L50.08 6.93L47.92 7.13L47.92 7.56L49.06 7.67L49.06 13.40L47.94 13.57L47.94 14L51.76 14L51.76 13.57L50.36 13.40L50.36 9.84C50.36 9.09 50.30 8.44 50.30 8.44ZM56.15 5.22C56.69 5.22 57.04 4.91 57.04 4.40C57.04 3.93 56.73 3.64 56.22 3.64C55.71 3.64 55.33 3.93 55.33 4.42C55.33 4.90 55.68 5.22 56.15 5.22ZM56.56 6.93L54.40 7.13L54.40 7.56L55.54 7.67L55.54 13.40L54.42 13.57L54.42 14L57.96 14L57.96 13.57L56.84 13.40L56.84 7ZM58.73 7.63L59.70 7.64C59.67 7.81 59.64 8.37 59.64 8.78L59.64 11.94C59.64 13.51 60.38 14.14 61.49 14.14C62.58 14.14 63.32 13.52 63.32 13.52L63.32 13.01C63.32 13.01 62.73 13.27 62.01 13.27C61.25 13.27 60.93 12.81 60.93 11.93L60.93 7.66L63.31 7.77L63.31 7L60.93 7L60.94 5.38L60.65 5.38L59.63 7L58.73 7.32ZM65.93 17.50L67.24 17.57C67.24 17.57 67.49 15.99 68.24 14.01L70.64 7.62L71.61 7.43L71.61 7L68.64 7L68.64 7.43L69.69 7.62L68.43 11.34C68.15 12.18 67.96 12.92 67.96 12.92L67.90 12.92C67.90 12.92 67.70 12.15 67.40 11.30L66.04 7.62L66.95 7.43L66.95 7L63.69 7L63.69 7.43L64.60 7.62L67.30 14.25C66.37 15.83 65.93 17.50 65.93 17.50ZM75.42 4.20L75.29 6.78L75.81 6.78L76.33 5.01L78.69 4.89L78.69 13.38L77.57 13.57L77.57 14L81.19 14L81.19 13.57L80.07 13.38L80.07 4.89L82.53 5.01L82.63 6.78L83.15 6.78L83.44 4.20ZM89.39 10.40C89.59 8.13 88.66 6.86 86.72 6.86C84.95 6.86 83.48 8.30 83.48 10.63C83.48 12.67 84.74 14.14 86.76 14.14C88.21 14.14 89.11 13.41 89.11 13.41L89.11 12.94C89.11 12.94 88.27 13.27 87.32 13.27C85.79 13.27 84.85 12.07 84.81 10.40ZM86.66 7.57C87.86 7.57 88.10 8.55 88.12 9.66L84.84 9.74C84.97 8.41 85.64 7.57 86.66 7.57ZM93.87 7.59C94.61 7.59 95.12 8.19 95.93 8.30L96.21 7.17C95.55 7.10 95.14 6.86 94.28 6.86C92.19 6.86 90.78 8.47 90.78 10.63C90.78 12.67 91.90 14.14 93.91 14.14C95.31 14.14 96.12 13.41 96.12 13.41L96.12 12.94C96.12 12.94 95.38 13.27 94.37 13.27C92.90 13.27 92.11 12.00 92.11 10.26C92.11 9.04 92.68 7.59 93.87 7.59ZM99.55 3.42L99.27 3.35L97.12 3.56L97.12 3.99L98.25 4.10L98.25 13.40L97.13 13.57L97.13 14L100.53 14L100.53 13.57L99.55 13.40L99.55 9.70C99.55 8.95 99.50 8.37 99.50 8.37C99.50 8.37 100.27 7.90 101.28 7.90C102.28 7.90 102.72 8.53 102.72 9.69L102.72 13.40L101.74 13.57L101.74 14L105.14 14L105.14 13.57L104.02 13.40L104.02 9.37C104.02 7.88 103.24 6.86 101.77 6.86C100.88 6.86 100.13 7.34 99.50 7.83ZM111.89 4.82L113.01 4.63L113.01 4.20L109.40 4.20L109.40 4.63L110.52 4.82L110.52 13.38L109.40 13.57L109.40 14L116.42 14L116.51 11.16L115.99 11.16L115.58 13.24L111.89 13.30ZM120.02 4.82L121.14 4.63L121.14 4.20L117.53 4.20L117.53 4.63L118.65 4.82L118.65 13.38L117.53 13.57L117.53 14L124.56 14L124.64 11.16L124.12 11.16L123.72 13.24L120.02 13.30ZM131.12 13.47C128.58 13.47 127.16 11.51 127.16 8.97C127.16 6.43 128.41 4.73 130.73 4.73C131.68 4.73 132.34 4.96 132.62 5.07L132.83 6.94L133.38 6.94L133.49 4.56C133.49 4.56 132.45 4.00 130.63 4.00C127.46 4.00 125.73 6.43 125.73 9.27C125.73 12.39 127.74 14.20 130.97 14.20C132.36 14.20 133.45 13.65 133.45 13.65L133.45 11.16L132.92 11.16L132.62 13.26C132.30 13.34 131.73 13.47 131.12 13.47Z"></path></g><!----><!----></svg>